<?xml version="1.0" encoding="UTF-8"?>
<svg clip-rule="evenodd" fill-rule="evenodd" stroke-miterlimit="10" version="1.1" viewBox="0 0 728 667" xml:space="preserve" xmlns="http://www.w3.org/2000/svg" xmlns:cc="http://creativecommons.org/ns#" xmlns:dc="http://purl.org/dc/elements/1.1/" xmlns:rdf="http://www.w3.org/1999/02/22-rdf-syntax-ns#" xmlns:serif="http://www.serif.com/"><title>HORNET Gopher</title><metadata><rdf:RDF><cc:Work rdf:about=""><dc:format>image/svg+xml</dc:format><dc:type rdf:resource="http://purl.org/dc/dcmitype/StillImage"/><dc:title>HORNET Gopher</dc:title><cc:license rdf:resource="http://creativecommons.org/licenses/by/4.0/"/><dc:date>11.11.19</dc:date><dc:creator><cc:Agent><dc:title>The "Go Gopher" was originally designed by Renee French. The "Gopher Hornet" was designed by Richard K. &amp; Mark Schmidt.</dc:title></cc:Agent></dc:creator><dc:source>https://gitlab.com/gohornet/logo/</dc:source></cc:Work><cc:License rdf:about="http://creativecommons.org/licenses/by/4.0/"><cc:permits rdf:resource="http://creativecommons.org/ns#Reproduction"/><cc:permits rdf:resource="http://creativecommons.org/ns#Distribution"/><cc:requires rdf:resource="http://creativecommons.org/ns#Notice"/><cc:requires rdf:resource="http://creativecommons.org/ns#Attribution"/><cc:permits rdf:resource="http://creativecommons.org/ns#DerivativeWorks"/></cc:License></rdf:RDF></metadata><ellipse cx="370.82" cy="638.78" rx="199.74" ry="27.774" fill="#c5c5c5" serif:id="floor shadow"/><g fill-rule="nonzero"><path d="m293.27 347.37s-192.96-52.156-255.45-0.323c-1.291 1.131-2.745 2.261-4.198 3.391-21.637 16.955-42.145 71.21 55.386 98.984 11.303 3.23 22.929 5.167 34.717 5.652 50.38 2.099 144.04-10.012 190.54-70.242" fill="#acc8df" serif:id="bottom left"/><path d="m240.46 382.57c-119.17 16.793-170.84-22.607-189.57-44.083 36.493-18.569 97.207-16.309 148.72-9.365 70.725 18.408 127.89 41.176 40.852 53.448z" fill-opacity=".1"/><path d="m297.79 315.07s-67.335-116.42-221.7-132.41c-74.763-4.36-112.71 46.02-27.128 132.89 1.615 1.615 3.23 3.229 5.006 4.844 32.618 30.196 41.499 49.734 220.57 65.074" fill="#acc8df" serif:id="top left"/><path d="m188.63 239.66c-64.266-41.337-162.93-43.598-171.97-43.759 13.564-10.012 34.394-14.694 59.423-13.241 44.405 4.521 81.383 17.439 111.9 33.586l0.646 23.414z" fill="#fff" fill-opacity=".2"/><path d="m413.57 384.83c46.504 60.392 140 72.341 190.54 70.242 11.788-0.485 23.414-2.422 34.717-5.652 97.369-27.774 76.7-82.029 55.224-98.984-1.453-1.13-2.745-2.26-4.198-3.391-62.652-51.833-255.45 0.323-255.45 0.323" fill="#acc8df" serif:id="bottom left"/><path d="m676.45 338.49c-18.731 21.315-70.403 60.876-189.57 44.083-86.873-12.272-29.711-35.04 40.853-53.448 51.672-6.944 112.22-9.204 148.72 9.365z" fill="#acc8df"/><path d="m676.45 338.49c-18.731 21.315-70.403 60.876-189.57 44.083-86.873-12.272-29.711-35.04 40.853-53.448 51.672-6.944 112.22-9.204 148.72 9.365z" fill-opacity=".08"/><path d="m452.96 385.31c179.24-15.34 188.12-34.717 220.57-65.074 1.776-1.615 3.391-3.23 5.006-4.844 85.581-86.874 47.958-137.25-27.128-132.89-154.37 15.986-221.7 132.41-221.7 132.41" fill="#acc8df" serif:id="top left"/><path d="m711.16 195.9c-6.782 0-107.22 1.937-172.29 43.759l0.646-23.575c30.518-15.986 67.496-28.904 111.9-33.587 25.19-1.453 46.182 3.23 59.746 13.403z" fill="#fff" fill-opacity=".2"/></g><ellipse cx="362.91" cy="244.62" rx="159.7" ry="154.37" fill="#9d7e65"/><g fill-rule="nonzero"><path d="m439.72 159.2c-71.21 8.341-64.428 86.389-35.686 111.58 53.609 46.827 109.32 0 103.18-47.474-5.813-45.374-42.791-66.869-67.496-64.105" fill="#d7d5d5"/><path d="m443.49 226.05c0 14.048-11.465 25.513-25.513 25.513-14.049 0-25.513-11.465-25.513-25.513s11.464-25.513 25.513-25.513c14.048 0 25.513 11.465 25.513 25.513" fill="#121312"/><path d="m436.86 229.77c0 4.521-3.552 8.074-8.074 8.074-4.521 0-8.073-3.553-8.073-8.074s3.552-8.074 8.073-8.074c4.522 0.162 8.074 3.714 8.074 8.074" fill="#fff"/><path d="m362.7 288.32c-30.66 4.616-42.752 13.64-40.394 27.767 1.809 11.009 14.097 13.427 39.427 7.746 25.322 7.675 37.74 3.282 38.816-6.627 2.143-19.735-37.849-28.886-37.849-28.886z" fill="#bd9486"/></g><path d="m344.65 323.2c0.118-0.422 0.435-0.759 0.849-0.902 3.662-1.184 21.844-6.478 33.744 1.384 3.019 1.995 6.974 15.14-3.086 22.726-0.858 0.621-11.128 3.833-27.232-0.019-1.287-0.428-8.805-7.048-4.275-23.189z" fill="#d7d5d5"/><path d="m363.61 273.57s22.548-0.495 23.507 19.405c0.193 4.021-3.461 9.439-23.507 10.115-3.682 0-21.043-0.655-23.06-10.502-0.47-2.758 0.586-19.485 23.06-19.018z" fill="#231f20"/><g fill-rule="nonzero"><path d="m285.4 159.2c71.21 8.341 64.429 86.389 35.686 111.58-53.609 46.827-109.32 0-103.18-47.474 5.813-45.374 42.791-66.869 67.496-64.105" fill="#d7d5d5"/><path d="m224.36 226.05c0 14.048 11.465 25.513 25.513 25.513s25.513-11.465 25.513-25.513-11.465-25.513-25.513-25.513-25.513 11.465-25.513 25.513" fill="#121312"/><path d="m253.43 229.77c0 4.521 3.552 8.074 8.073 8.074s8.074-3.553 8.074-8.074-3.553-8.074-8.074-8.074-8.073 3.714-8.073 8.074" fill="#fff"/><path d="m570.86 466.87c14.112-3.463 10.066-22.646 3.254-34.639-5.516-9.712-12.265-13.826-17.256-8.025-6.275 7.334-4.372 25.536-3.472 28.816 1.656 6.042 9.3 15.717 16.547 14.073" fill="#b28e82"/><path d="m155.01 466.87c-14.112-3.463-10.066-22.646-3.254-34.639 5.517-9.712 12.265-13.826 17.256-8.025 6.275 7.334 4.372 25.536 3.473 28.816-1.657 6.042-9.301 15.717-16.547 14.073" fill="#b28e82"/><path d="m506.3 623.16c-13.402-19.862-20.669-6.137-45.051 5.49-9.335 4.451 23.252 17.579 42.306 8.881 7.428-3.391 7.266-7.751 2.745-14.371" fill="#9b7c78"/><path d="m220.49 623.16c13.402-19.862 20.668-6.137 45.051 5.49 9.335 4.451-23.252 17.579-42.306 8.881-7.428-3.391-7.267-7.751-2.745-14.371" fill="#9b7c78"/></g><ellipse cx="363.39" cy="244.95" rx="151.95" ry="146.3" fill="none" stroke="#000" stroke-opacity=".1" stroke-width="11.45px" serif:id="head shadow"/><path d="m588.17 133.21c-15.178-31.165-52.156-3.714-61.521-13.403-47.797-49.411-105.44-61.521-151.14-63.782 0 0-20.507-0.161-25.19 0-45.536 1.13-103.34 14.533-151.14 63.782-9.365 9.689-46.343-17.923-61.521 13.403-17.601 36.331 35.847 40.207 32.94 56.193-5.167 29.226-1.776 72.34 2.261 114.97 6.782 72.179-47.312 245.12 65.235 314.55 21.315 13.079 78.154 20.668 128.05 21.637h0.323c49.734-0.969 99.953-8.558 121.11-21.637 112.39-69.434 58.454-242.37 65.236-314.55 4.036-42.629 7.427-85.904 2.26-114.97-2.745-15.986 50.865-19.862 33.102-56.193zm-225.1-40.53c86.874 0 157.6 68.142 157.6 152.11 0 83.967-70.564 152.11-157.6 152.11-87.034 0-157.6-68.142-157.6-152.11 0-83.966 70.725-152.11 157.6-152.11z" fill="#ebb148" fill-rule="nonzero"/><clipPath id="_clip1"><path d="m588.17 133.21c-15.178-31.165-52.156-3.714-61.521-13.403-47.797-49.411-105.44-61.521-151.14-63.782 0 0-20.507-0.161-25.19 0-45.536 1.13-103.34 14.533-151.14 63.782-9.365 9.689-46.343-17.923-61.521 13.403-17.601 36.331 35.847 40.207 32.94 56.193-5.167 29.226-1.776 72.34 2.261 114.97 6.782 72.179-47.312 245.12 65.235 314.55 21.315 13.079 78.154 20.668 128.05 21.637h0.323c49.734-0.969 99.953-8.558 121.11-21.637 112.39-69.434 58.454-242.37 65.236-314.55 4.036-42.629 7.427-85.904 2.26-114.97-2.745-15.986 50.865-19.862 33.102-56.193zm-225.1-40.53c86.874 0 157.6 68.142 157.6 152.11 0 83.967-70.564 152.11-157.6 152.11-87.034 0-157.6-68.142-157.6-152.11 0-83.966 70.725-152.11 157.6-152.11z" clip-rule="nonzero"/></clipPath><g clip-path="url(#_clip1)" fill="none" stroke="#292929" stroke-linecap="round" stroke-linejoin="round" stroke-miterlimit="1.5" stroke-width="24.22px"><path d="m156.38 568.7s209.43 82.998 412.24 0"/><path d="m156.38 522.68s209.43 82.998 412.24 0"/><path d="m156.38 476.5s209.43 82.997 412.24 0"/></g><g fill="none" stroke="#af8936" stroke-linecap="round" stroke-linejoin="round" stroke-miterlimit="1.5" stroke-width="3.23px"><path d="m362.57 399.02s21.476 7.912 16.47 23.575c-5.006 15.502-23.898-3.391-16.47-23.575z"/><path d="m362.57 399.02s-0.162 30.196-18.086 31.649c-9.849 0.807 1.292-32.779 18.086-31.649z"/><path d="m362.57 399.02s-12.111 15.663-13.08 45.697"/><path d="m362.57 399.02s8.719 24.705 2.422 57.969"/></g><path d="m368.22 452.63-5.167-0.807-2.099 12.595 5.167 0.807 2.099-12.595z" fill="#af8936" fill-rule="nonzero"/><path d="m352.56 442.78-5.813-0.323-0.807 12.918 5.813 0.323 0.807-12.918z" fill="#af8936" fill-rule="nonzero"/><g fill="none" stroke="#292929" stroke-linecap="round" stroke-linejoin="round" stroke-miterlimit="1.5" stroke-width="3.23px"><path d="m364.2 396.73s21.96 6.136 18.408 22.122c-3.553 15.986-24.383-1.291-18.408-22.122z"/><path d="m364.2 396.73s2.26 30.035-15.502 33.103c-9.688 1.453-1.292-32.78 15.502-33.103z"/><path d="m364.2 396.73s-10.819 16.471-9.366 46.666"/><path d="m364.2 396.73s10.657 23.899 7.104 57.647"/></g><path d="m374.05 449.7-5.168-0.485-1.13 12.757 5.167 0.484 1.131-12.756z" fill="#292929" fill-rule="nonzero"/><path d="m357.58 441.14-5.813 0.161 0.323 12.918 5.813-0.161-0.323-12.918z" fill="#292929" fill-rule="nonzero"/><path d="m417.97 60.865s70.725-153.56 98.176 75.57" fill="none" stroke="#292929" stroke-linecap="round" stroke-linejoin="round" stroke-miterlimit="1.5" stroke-width="20.99px"/><path d="m308.17 60.865s-70.725-153.56-98.176 75.57" fill="none" stroke="#292929" stroke-linecap="round" stroke-linejoin="round" stroke-miterlimit="1.5" stroke-width="20.99px"/><path d="m514.86 596.8c-7.751 8.074-16.793 15.501-27.289 21.96s-28.419 11.788-49.896 15.34c-21.476 3.714-46.504 5.813-71.21 6.298h-0.323c-49.895-0.969-107.22-7.751-128.05-21.638-59.583-39.884-67.173-90.102-71.371-145 106.41 118.2 134.67 109.8 348.14 123.04z" fill-opacity=".1" fill-rule="nonzero" serif:id="body shadow"/><circle cx="488.31" cy="429.38" r="37.344" fill="#75643e"/><circle cx="490.38" cy="426.51" r="32.228" fill="none" stroke="#fff" stroke-linejoin="round" stroke-miterlimit="2" stroke-width="8px"/><circle cx="490.38" cy="426.51" r="32.228" fill="#fff"/><clipPath id="_clip2"><circle cx="490.38" cy="426.51" r="32.228"/></clipPath><g clip-path="url(#_clip2)"><g fill-rule="nonzero"><path d="m494.97 415.59c0.221 0.301 0.639 0.439 1.018 0.333 0.095-0.026 0.184-0.067 0.267-0.121 0.412-0.277 0.514-0.821 0.227-1.212-0.171-0.233-0.457-0.372-0.767-0.372-0.189 0-0.368 0.053-0.518 0.152-0.416 0.276-0.518 0.824-0.227 1.22"/><path d="m492.62 413.41c0.016 0.273 0.141 0.519 0.352 0.694 0.277 0.241 0.663 0.324 1.02 0.225 0.192-0.055 0.363-0.158 0.494-0.298 0.193-0.202 0.289-0.462 0.274-0.733-0.016-0.271-0.142-0.52-0.355-0.702-0.187-0.159-0.438-0.247-0.706-0.247-0.315 0-0.608 0.12-0.804 0.328-0.193 0.201-0.29 0.46-0.275 0.733"/><path d="m490.26 412.9c0.186 0.097 0.395 0.149 0.604 0.149 0.119 0 0.238-0.016 0.354-0.049 0.317-0.088 0.578-0.287 0.735-0.56 0.162-0.277 0.201-0.596 0.11-0.899-0.092-0.304-0.303-0.556-0.594-0.707-0.171-0.089-0.371-0.137-0.577-0.137-0.467 0-0.906 0.235-1.12 0.599-0.327 0.569-0.109 1.289 0.488 1.604"/><path d="m486.83 412.22c0.254 0.067 0.537 0.066 0.799-7e-3 0.482-0.135 0.853-0.488 0.991-0.945 0.105-0.352 0.06-0.724-0.128-1.047-0.189-0.322-0.498-0.555-0.871-0.658-0.118-0.031-0.243-0.047-0.369-0.047-0.651 0-1.253 0.42-1.431 0.998-0.213 0.726 0.238 1.493 1.009 1.706"/><path d="m482.68 412.27c0.195 0.01 0.385-0.012 0.569-0.064 0.689-0.193 1.177-0.778 1.213-1.457 0.024-0.432-0.132-0.847-0.44-1.168-0.303-0.317-0.717-0.503-1.164-0.523l-0.084-2e-3c-0.888 0-1.652 0.686-1.701 1.53-0.045 0.885 0.676 1.641 1.607 1.684"/><path d="m475.65 411.86c0.168 0.9 0.99 1.552 1.954 1.552h1e-3c0.115 0 0.231-9e-3 0.346-0.028 0.072-0.012 0.144-0.028 0.214-0.047 0.967-0.271 1.566-1.187 1.391-2.131-0.172-0.897-0.994-1.549-1.954-1.549-0.114 0-0.23 0.01-0.344 0.029-1.076 0.191-1.798 1.166-1.608 2.174"/><path d="m495.31 418.93c0.191-0.201 0.287-0.461 0.271-0.733-0.015-0.271-0.141-0.519-0.354-0.698-0.19-0.163-0.442-0.252-0.712-0.252-0.312 0-0.601 0.118-0.793 0.324-0.193 0.201-0.29 0.461-0.276 0.733 0.013 0.27 0.137 0.518 0.35 0.701 0.199 0.167 0.454 0.261 0.717 0.261 0.104 0 0.207-0.014 0.307-0.043 0.189-0.052 0.357-0.153 0.49-0.293"/><path d="m492.89 416.44c-0.093-0.304-0.306-0.557-0.598-0.71-0.173-0.09-0.372-0.137-0.578-0.137-0.467 0-0.896 0.231-1.119 0.604-0.324 0.572-0.102 1.293 0.497 1.603 0.185 0.097 0.393 0.148 0.599 0.148 0.119 0 0.238-0.016 0.353-0.049 0.318-0.089 0.579-0.288 0.733-0.562 0.164-0.277 0.204-0.594 0.113-0.897"/><path d="m489.45 416.16c0.104-0.351 0.057-0.724-0.131-1.048-0.189-0.32-0.498-0.552-0.869-0.652-0.121-0.032-0.246-0.049-0.372-0.049-0.651 0-1.25 0.419-1.424 0.996-0.22 0.729 0.228 1.493 0.998 1.703 0.264 0.07 0.546 0.069 0.809-4e-3 0.479-0.135 0.848-0.488 0.989-0.946"/><path d="m485.29 415.65c0.024-0.43-0.13-0.843-0.436-1.163-0.304-0.318-0.718-0.504-1.167-0.524-0.03-2e-3 -0.059-3e-3 -0.088-3e-3 -0.872 0-1.648 0.698-1.695 1.524-0.048 0.884 0.673 1.641 1.607 1.687 0.033 2e-3 0.065 3e-3 0.096 3e-3 0.16 0 0.319-0.022 0.474-0.065 0.684-0.192 1.17-0.778 1.209-1.459"/><path d="m478.42 414.55c-0.114 0-0.229 9e-3 -0.342 0.028-1.074 0.176-1.794 1.153-1.608 2.177 0.093 0.495 0.383 0.927 0.818 1.214 0.431 0.286 0.962 0.397 1.48 0.308 0.078-0.012 0.15-0.029 0.223-0.049 0.962-0.27 1.559-1.184 1.386-2.128-0.172-0.897-0.995-1.55-1.957-1.55"/><path d="m470.62 419.58c0.365 0.814 1.2 1.341 2.127 1.341 0.219 0 0.438-0.03 0.65-0.09 0.087-0.024 0.176-0.054 0.263-0.089 0.574-0.233 1.017-0.662 1.246-1.207 0.23-0.542 0.223-1.136-0.02-1.673-0.364-0.813-1.201-1.338-2.133-1.338-0.311 0-0.616 0.059-0.906 0.176-1.174 0.474-1.724 1.766-1.227 2.88"/><path d="m494.61 421.14c-0.174-0.092-0.376-0.14-0.584-0.14-0.466 0-0.901 0.234-1.109 0.597-0.333 0.571-0.116 1.29 0.484 1.605 0.293 0.157 0.637 0.194 0.957 0.104 0.315-0.088 0.579-0.29 0.745-0.566 0.327-0.568 0.106-1.287-0.493-1.6"/><path d="m489.09 421.86c0.188 0.321 0.497 0.553 0.869 0.655 0.129 0.034 0.264 0.051 0.399 0.051 0.14 0 0.279-0.019 0.413-0.056 0.482-0.135 0.851-0.488 0.988-0.945 0.216-0.732-0.231-1.496-0.997-1.702-0.122-0.033-0.248-0.05-0.376-0.05-0.646 0-1.245 0.418-1.422 0.993-0.108 0.355-0.063 0.729 0.126 1.054"/><path d="m487.61 421.05c0.046-0.885-0.677-1.642-1.611-1.687l-0.08-2e-3c-0.876 0-1.654 0.697-1.698 1.523-0.05 0.885 0.671 1.644 1.605 1.692l0.083 1e-3c0.166 0 0.328-0.022 0.484-0.065 0.687-0.193 1.176-0.78 1.217-1.462"/><path d="m480.74 423.72c0.114 0 0.229-0.01 0.343-0.029 0.074-0.012 0.145-0.028 0.216-0.048 0.969-0.271 1.566-1.187 1.39-2.13-0.17-0.901-0.991-1.554-1.953-1.554-0.115 0-0.231 9e-3 -0.345 0.028-1.074 0.182-1.792 1.161-1.603 2.184 0.169 0.897 0.99 1.549 1.952 1.549"/><path d="m477.22 424.95c0.233-0.547 0.227-1.144-0.016-1.681-0.361-0.799-1.225-1.335-2.151-1.335-0.308 0-0.607 0.059-0.888 0.174-0.572 0.228-1.014 0.651-1.246 1.193-0.234 0.546-0.228 1.145 0.017 1.689 0.366 0.812 1.203 1.337 2.132 1.337 0.221 0 0.441-0.03 0.655-0.09 0.086-0.024 0.17-0.052 0.254-0.086 0.57-0.229 1.012-0.656 1.243-1.201"/><path d="m471.39 426.67c-0.51-0.664-1.332-1.06-2.199-1.06-0.259 0-0.516 0.035-0.765 0.105-0.296 0.083-0.575 0.214-0.83 0.389-0.584 0.404-0.968 1-1.08 1.68-0.113 0.68 0.06 1.359 0.485 1.914 0.509 0.664 1.332 1.061 2.201 1.061 0.259 0 0.516-0.035 0.764-0.104 0.296-0.083 0.575-0.213 0.829-0.388 1.208-0.839 1.476-2.452 0.595-3.597"/><path d="m500.58 435.68c-0.041-0.448-0.446-0.799-0.921-0.799-0.027 0-0.053 1e-3 -0.08 3e-3 -0.392 0.031-0.719 0.3-0.813 0.669-0.023 0.092-0.03 0.183-0.022 0.281 0.043 0.444 0.444 0.794 0.914 0.794 0.026 0 0.052-1e-3 0.079-3e-3 0.238-0.019 0.465-0.132 0.624-0.311 0.162-0.181 0.239-0.406 0.219-0.634"/><path d="m501.23 434.71c-0.046 0.185-0.038 0.378 0.024 0.557 0.179 0.52 0.795 0.821 1.351 0.65 0.257-0.079 0.479-0.266 0.61-0.511 0.13-0.246 0.156-0.526 0.071-0.77-0.087-0.26-0.275-0.469-0.532-0.591-0.15-0.074-0.316-0.112-0.48-0.112-0.112 0-0.223 0.018-0.33 0.052-0.361 0.109-0.627 0.379-0.714 0.725"/><path d="m503.82 433.1c-0.078 0.305-0.027 0.618 0.144 0.884 0.172 0.273 0.443 0.463 0.766 0.54 0.1 0.024 0.204 0.036 0.306 0.036 0.223 0 0.443-0.059 0.636-0.17 0.568-0.326 0.768-1.085 0.427-1.624-0.225-0.35-0.636-0.569-1.072-0.569-0.225 0-0.445 0.058-0.637 0.167-0.289 0.165-0.491 0.427-0.57 0.736"/><path d="m507.75 432.26c0.376 0 0.734-0.137 1.007-0.387 0.552-0.508 0.567-1.421 0.031-1.953-0.273-0.265-0.644-0.411-1.041-0.411-0.383 0-0.745 0.137-1.021 0.386-0.191 0.179-0.328 0.407-0.392 0.66-0.118 0.464 0.019 0.945 0.367 1.286 0.269 0.264 0.632 0.412 1.021 0.419l0.027 0.2h1e-3v-0.2z"/><path d="m511.6 428.2c0.499-0.731 0.269-1.752-0.502-2.23-0.274-0.167-0.592-0.255-0.917-0.255-0.58 0-1.113 0.274-1.425 0.734-0.105 0.153-0.181 0.321-0.227 0.499-0.168 0.662 0.123 1.355 0.725 1.724 0.277 0.17 0.595 0.26 0.922 0.26 0.121 0 0.244-0.012 0.364-0.036 0.441-0.091 0.818-0.339 1.06-0.696"/><path d="m512.64 420.88c-0.218-0.074-0.444-0.112-0.674-0.112-0.831 0-1.583 0.498-1.868 1.24-0.026 0.066-0.046 0.133-0.064 0.2-0.236 0.93 0.301 1.88 1.25 2.208 0.215 0.073 0.44 0.11 0.667 0.11 0.835 0 1.586-0.498 1.87-1.238 0.363-0.978-0.166-2.059-1.181-2.408"/><path d="m496.34 432.95c-0.047 0.181-0.039 0.37 0.022 0.548 0.088 0.258 0.278 0.467 0.534 0.59 0.151 0.072 0.312 0.109 0.48 0.109 0.113 0 0.226-0.017 0.336-0.052 0.26-0.079 0.483-0.264 0.614-0.509 0.13-0.244 0.156-0.522 0.072-0.762-0.088-0.259-0.276-0.468-0.532-0.593-0.153-0.075-0.316-0.113-0.486-0.113-0.11 0-0.221 0.017-0.329 0.049-0.357 0.113-0.624 0.388-0.711 0.733"/><path d="m499.84 432.76c0.317 0.073 0.665 0.025 0.946-0.137 0.572-0.329 0.766-1.075 0.423-1.628-0.23-0.351-0.631-0.563-1.073-0.563-0.226 0-0.447 0.059-0.64 0.17-0.287 0.165-0.487 0.425-0.565 0.733-0.078 0.306-0.026 0.62 0.146 0.883 0.17 0.273 0.44 0.464 0.763 0.542"/><path d="m502.86 430.49c0.382 0 0.742-0.138 1.013-0.388 0.265-0.242 0.42-0.594 0.427-0.965 7e-3 -0.373-0.137-0.732-0.393-0.983-0.276-0.27-0.646-0.418-1.044-0.418-0.379 0-0.738 0.137-1.011 0.386-0.197 0.183-0.336 0.414-0.401 0.667-0.116 0.46 0.022 0.94 0.369 1.285 0.27 0.261 0.634 0.41 1.023 0.416l0.017 0.202v-0.202z"/><path d="m506.71 426.44c0.24-0.349 0.32-0.776 0.225-1.203-0.094-0.424-0.358-0.797-0.723-1.022-0.274-0.168-0.592-0.257-0.918-0.257-0.579 0-1.112 0.274-1.426 0.733-0.106 0.152-0.182 0.32-0.228 0.499-0.167 0.658 0.125 1.35 0.727 1.723 0.277 0.17 0.595 0.26 0.919 0.26 0.12 0 0.242-0.012 0.361-0.036 0.442-0.091 0.82-0.339 1.063-0.697"/><path d="m506.4 422.65c0.214 0.073 0.439 0.11 0.666 0.11 0.836 0 1.588-0.498 1.873-1.238 0.376-0.969-0.156-2.05-1.185-2.409-0.218-0.075-0.447-0.113-0.678-0.113-0.29 0-0.572 0.059-0.838 0.178-0.48 0.213-0.842 0.59-1.022 1.062-0.027 0.07-0.048 0.139-0.067 0.208-0.234 0.924 0.303 1.872 1.251 2.202"/><path d="m507.55 417.25c0.095 0.011 0.189 0.016 0.282 0.016 1.167 0 2.155-0.83 2.298-1.932 0.154-1.201-0.751-2.299-2.017-2.447-0.096-0.012-0.191-0.017-0.286-0.017-1.071 0-1.994 0.687-2.244 1.672-0.022 0.084-0.038 0.172-0.05 0.261-0.075 0.587 0.095 1.166 0.479 1.627 0.379 0.459 0.926 0.75 1.538 0.82"/><path d="m495.25 431.08c0.079-0.309 0.032-0.63-0.13-0.882-0.225-0.353-0.634-0.572-1.07-0.572-0.224 0-0.445 0.058-0.638 0.169-0.292 0.163-0.494 0.423-0.573 0.733-0.077 0.302-0.026 0.621 0.144 0.894 0.227 0.353 0.626 0.565 1.067 0.565 0.226 0 0.448-0.058 0.641-0.169 0.274-0.156 0.477-0.425 0.559-0.738"/><path d="m496.78 429.68c0.38 0 0.737-0.137 1.005-0.385 0.557-0.508 0.575-1.417 0.038-1.948-0.27-0.266-0.634-0.417-1.025-0.424h-1e-3c-0.398 0-0.757 0.137-1.031 0.386-0.197 0.184-0.337 0.417-0.402 0.67-0.117 0.463 0.021 0.944 0.369 1.285 0.277 0.268 0.649 0.416 1.047 0.416"/><path d="m498.28 426.11c0.273 0.167 0.591 0.256 0.917 0.256 0.581 0 1.115-0.275 1.429-0.735 0.49-0.719 0.257-1.757-0.5-2.221-0.275-0.17-0.593-0.26-0.92-0.26-0.579 0-1.112 0.274-1.427 0.733-0.105 0.154-0.181 0.322-0.226 0.497-0.167 0.66 0.124 1.355 0.727 1.73"/><path d="m501.66 418.31c-0.216-0.074-0.441-0.111-0.67-0.111-0.831 0-1.581 0.497-1.865 1.236-0.026 0.067-0.047 0.133-0.064 0.2-0.237 0.933 0.3 1.882 1.25 2.209 0.217 0.074 0.444 0.112 0.674 0.112 0.833 0 1.584-0.497 1.868-1.238 0.371-0.972-0.164-2.052-1.193-2.408"/><path d="m502.02 412.09c-0.095-0.011-0.189-0.017-0.281-0.017-1.075 0-2 0.692-2.252 1.682-0.021 0.082-0.037 0.165-0.048 0.25-0.076 0.585 0.093 1.16 0.475 1.622 0.383 0.465 0.931 0.759 1.544 0.829 0.09 0.01 0.18 0.015 0.269 0.015 1.163 0 2.177-0.848 2.31-1.931 0.078-0.584-0.088-1.159-0.467-1.62-0.38-0.465-0.931-0.76-1.55-0.83"/><path d="m500.96 409.99c0.096 0 0.193-5e-3 0.29-0.015 1.141-0.116 2.087-0.902 2.354-1.957 0.073-0.285 0.093-0.58 0.06-0.876-0.147-1.311-1.306-2.3-2.696-2.3-0.095 0-0.191 4e-3 -0.288 0.014-1.141 0.114-2.088 0.9-2.357 1.957-0.072 0.287-0.092 0.581-0.059 0.874 0.149 1.313 1.308 2.303 2.696 2.303"/><path d="m479.45 428.02c-0.072-0.065-0.152-0.117-0.245-0.159-0.119-0.052-0.249-0.079-0.383-0.079-0.358 0-0.686 0.196-0.836 0.499-0.102 0.205-0.112 0.449-0.028 0.669 0.085 0.223 0.252 0.399 0.47 0.496 0.122 0.055 0.252 0.082 0.387 0.082 0.359 0 0.688-0.198 0.84-0.506 0.168-0.338 0.085-0.741-0.205-1.002"/><path d="m478.47 430.21c-0.076-0.015-0.151-0.023-0.226-0.023-0.5 0-0.939 0.339-1.044 0.807-0.056 0.25 4e-3 0.527 0.163 0.757 0.158 0.229 0.401 0.391 0.666 0.442 0.286 0.06 0.567 7e-3 0.807-0.14 0.241-0.149 0.403-0.375 0.458-0.637 0.082-0.35-0.033-0.704-0.305-0.95-0.146-0.13-0.326-0.219-0.519-0.256"/><path d="m478.33 435.44c0.683-0.015 1.232-0.554 1.221-1.203-6e-3 -0.319-0.144-0.617-0.387-0.836-0.231-0.208-0.532-0.323-0.846-0.323-0.368 4e-3 -0.678 0.132-0.909 0.358-0.232 0.228-0.356 0.527-0.349 0.841 0.014 0.62 0.6 1.163 1.253 1.163v0.201l0.017-0.201z"/><path d="m479.26 439.12c0.11 0 0.22-0.013 0.325-0.037 0.77-0.188 1.245-0.942 1.055-1.681-0.068-0.247-0.209-0.473-0.407-0.653-0.274-0.246-0.631-0.383-1.004-0.383-0.119 0-0.238 0.014-0.354 0.042-0.375 0.089-0.692 0.313-0.894 0.63-0.198 0.314-0.257 0.685-0.163 1.042 0.157 0.592 0.778 1.039 1.442 1.04"/><path d="m482.03 442.94c0.83-0.405 1.16-1.375 0.734-2.161-0.088-0.163-0.203-0.31-0.342-0.436-0.316-0.286-0.733-0.443-1.171-0.443-0.266 0-0.531 0.061-0.767 0.175-0.406 0.197-0.707 0.533-0.847 0.945-0.138 0.408-0.101 0.841 0.105 1.219 0.285 0.528 0.889 0.869 1.538 0.869 0.266 0 0.518-0.056 0.75-0.168"/><path d="m486.15 444.1c-0.047-0.054-0.098-0.104-0.151-0.153-0.369-0.333-0.854-0.517-1.365-0.517-0.465 0-0.917 0.157-1.275 0.441-0.831 0.669-0.939 1.856-0.238 2.648 0.383 0.424 0.94 0.668 1.527 0.668 0.463 0 0.91-0.154 1.262-0.435 0.835-0.667 0.943-1.857 0.24-2.652"/><path d="m482.53 427.08c-0.073-0.014-0.148-0.021-0.222-0.021-0.206 0-0.407 0.057-0.583 0.165-0.239 0.148-0.403 0.376-0.459 0.641-0.059 0.254-1e-3 0.53 0.157 0.76 0.157 0.229 0.397 0.389 0.66 0.44 0.285 0.059 0.567 6e-3 0.807-0.14s0.405-0.372 0.466-0.638c0.076-0.349-0.041-0.705-0.313-0.951-0.143-0.128-0.32-0.217-0.513-0.256"/><path d="m482.4 432.31c0.685-0.019 1.232-0.562 1.216-1.21-7e-3 -0.317-0.144-0.612-0.386-0.83-0.23-0.207-0.528-0.322-0.84-0.322l-0.044 1e-3c-0.33 3e-3 -0.639 0.129-0.872 0.355-0.231 0.229-0.355 0.53-0.348 0.847 0.014 0.628 0.593 1.159 1.264 1.159l-1e-3 0.202 0.011-0.202z"/><path d="m482.04 433.91c-0.197 0.316-0.254 0.686-0.16 1.039 0.156 0.594 0.773 1.041 1.435 1.041 0.111 0 0.221-0.013 0.327-0.038 0.776-0.184 1.249-0.934 1.056-1.671-0.068-0.254-0.209-0.483-0.408-0.663-0.273-0.245-0.629-0.38-1.004-0.38-0.118 0-0.237 0.014-0.354 0.041-0.373 0.09-0.69 0.314-0.892 0.631"/><path d="m483.7 437.89c-0.138 0.409-0.101 0.842 0.105 1.22 0.282 0.53 0.885 0.871 1.537 0.871 0.261 0 0.518-0.057 0.743-0.166 0.832-0.403 1.162-1.374 0.738-2.164-0.087-0.163-0.202-0.31-0.343-0.437-0.313-0.283-0.727-0.439-1.165-0.439-0.266 0-0.533 0.061-0.771 0.175-0.405 0.196-0.705 0.529-0.844 0.94"/><path d="m490.21 440.98c-0.051-0.058-0.103-0.109-0.158-0.16-0.366-0.33-0.849-0.513-1.358-0.513-0.465 0-0.918 0.157-1.277 0.44-0.83 0.669-0.938 1.859-0.239 2.65 0.376 0.427 0.927 0.672 1.512 0.672 0.465 0 0.919-0.156 1.279-0.44 0.406-0.324 0.655-0.779 0.7-1.279 0.046-0.5-0.118-0.986-0.459-1.37"/><path d="m495.23 444.12c-0.065-0.059-0.138-0.117-0.214-0.171-0.408-0.29-0.889-0.444-1.392-0.444-0.11 0-0.221 8e-3 -0.333 0.023-0.609 0.083-1.148 0.386-1.517 0.854-0.37 0.466-0.527 1.042-0.443 1.622 0.085 0.583 0.405 1.099 0.902 1.454 0.404 0.288 0.884 0.441 1.39 0.441 0.736 0 1.412-0.319 1.853-0.873 0.708-0.891 0.602-2.14-0.246-2.906"/><path d="m486.16 427.71c0.687-0.012 1.236-0.55 1.223-1.201-4e-3 -0.321-0.14-0.617-0.383-0.837-0.236-0.212-0.548-0.329-0.878-0.329-0.693 0.015-1.24 0.556-1.227 1.205 0.012 0.619 0.59 1.162 1.237 1.162v0.2l0.028-0.2z"/><path d="m485.66 430.34c0.155 0.594 0.772 1.042 1.437 1.042 0.11 0 0.218-0.013 0.323-0.037 0.378-0.088 0.698-0.312 0.9-0.629 0.198-0.315 0.256-0.685 0.163-1.042-0.069-0.254-0.212-0.484-0.411-0.665-0.272-0.246-0.627-0.381-1-0.381-0.12 0-0.24 0.014-0.357 0.042-0.776 0.19-1.25 0.939-1.055 1.67"/><path d="m487.58 434.51c0.284 0.526 0.887 0.866 1.535 0.866h1e-3c0.261 0 0.518-0.058 0.743-0.167 0.833-0.401 1.165-1.371 0.741-2.163-0.088-0.163-0.203-0.31-0.342-0.435-0.316-0.285-0.732-0.442-1.171-0.442-0.267 0-0.533 0.061-0.771 0.175-0.831 0.404-1.162 1.376-0.736 2.166"/><path d="m490.95 438.8c0.377 0.424 0.928 0.669 1.511 0.669 0.468 0 0.924-0.158 1.284-0.445 0.833-0.666 0.941-1.852 0.241-2.645-0.048-0.053-0.098-0.104-0.151-0.152-0.372-0.336-0.857-0.52-1.366-0.52-0.466 0-0.919 0.157-1.276 0.442-0.836 0.669-0.945 1.858-0.243 2.651"/><path d="m499.26 442.43c0.706-0.894 0.597-2.146-0.254-2.913-0.065-0.059-0.132-0.114-0.205-0.165-0.406-0.29-0.886-0.444-1.389-0.444-0.11 0-0.22 8e-3 -0.33 0.022-0.616 0.082-1.158 0.386-1.528 0.855-0.368 0.468-0.521 1.051-0.431 1.641 0.09 0.583 0.406 1.093 0.892 1.435 0.407 0.293 0.887 0.448 1.391 0.448 0.106 0 0.213-7e-3 0.321-0.021 0.615-0.08 1.159-0.385 1.533-0.858"/><path d="m505.91 442.03c-0.225-0.203-0.483-0.366-0.769-0.488-0.348-0.146-0.717-0.219-1.095-0.219-1.077 0-2.052 0.6-2.487 1.529-0.464 0.996-0.219 2.166 0.609 2.912 0.223 0.201 0.483 0.365 0.772 0.488 0.347 0.146 0.716 0.221 1.094 0.221 1.074 0 2.049-0.601 2.484-1.53 0.467-0.993 0.223-2.164-0.608-2.913"/></g></g><circle cx="490.38" cy="426.51" r="32.228" fill="none" stroke="#000" stroke-linecap="round" stroke-linejoin="round" stroke-miterlimit="1.5" stroke-width="1.5px"/></svg>
